HIERARCHY
ROOT pelvis
{
  OFFSET 0 100 0
  CHANNELS 6 Xposition Yposition Zposition Zrotation Xrotation Yrotation
  JOINT pelvis_right_femur
  {
    OFFSET -10.78128 -3.44521 -0.5502486
    CHANNELS 3 Zrotation Xrotation Yrotation
    JOINT right_femur_tibia
    {
      OFFSET -0.8047443 -44.0398 -0.1307829
      CHANNELS 3 Zrotation Xrotation Yrotation
      JOINT right_tibia_foot
      {
        OFFSET 3.006224 -47.83518 -5
        CHANNELS 3 Zrotation Xrotation Yrotation
        End Site
        {
          OFFSET 0 -5 15
        }
      }
    }
  }
  JOINT pelvis_left_femur
  {
    OFFSET 10.78128 -3.44521 -0.5502486
    CHANNELS 3 Zrotation Xrotation Yrotation
    JOINT left_femur_tibia
    {
      OFFSET 0.8047443 -44.0398 -0.1307829
      CHANNELS 3 Zrotation Xrotation Yrotation
      JOINT left_tibia_foot
      {
        OFFSET -4.370144 -48.10324 -4.275266
        CHANNELS 3 Zrotation Xrotation Yrotation
        End Site
        {
          OFFSET 0 -5 15
        }
      }
    }
  }
  JOINT pelvis_spine1
  {
    OFFSET 0 6.468898 -3.129235
    CHANNELS 3 Zrotation Xrotation Yrotation
    JOINT spine1
    {
      OFFSET 0 23.15396 4.99043
      CHANNELS 3 Zrotation Xrotation Yrotation
      JOINT spine2
      {
        OFFSET 0 20.79997 -5.064912
        CHANNELS 3 Zrotation Xrotation Yrotation
        JOINT neck
        {
          OFFSET 0 14.38658 9.616178
          CHANNELS 3 Zrotation Xrotation Yrotation
          End Site
          {
            OFFSET 0 20 0
          }
        }
      }
      JOINT right_manubrium
      {
        OFFSET -5.722621 16.35077 3.967754
        CHANNELS 3 Zrotation Xrotation Yrotation
        JOINT right_clavicle
        {
          OFFSET -13.16364 1.694482 -4.693211
          CHANNELS 3 Zrotation Xrotation Yrotation
          JOINT right_humerus
          {
            OFFSET -28.5034 -0.3100689 -2.792744
            CHANNELS 3 Zrotation Xrotation Yrotation
            JOINT right_radius
            {
              OFFSET -25.15693 0.02248979 -1.271978
              CHANNELS 3 Zrotation Xrotation Yrotation
              End Site
              {
                OFFSET -15 0 0
              }
            }
          }
        }
      }
      JOINT left_manubrium
      {
        OFFSET 5.722621 16.35077 3.967754
        CHANNELS 3 Zrotation Xrotation Yrotation
        JOINT left_clavicle
        {
          OFFSET 13.16364 1.694482 -4.693211
          CHANNELS 3 Zrotation Xrotation Yrotation
          JOINT left_humerus
          {
            OFFSET 29.39168 -1.063119 -2.237045
            CHANNELS 3 Zrotation Xrotation Yrotation
            JOINT left_radius
            {
              OFFSET 24.59957 -0.9528479 0.9047498
              CHANNELS 3 Zrotation Xrotation Yrotation
              End Site
              {
                OFFSET 15 -0 -0
              }
            }
          }
        }
      }
    }
  }
}
MOTION
Frames: 21
Frame Time: 0.0416666666667
0 103.5113 0 1.520464 -0.5258991 -0.1612334 5.509907 -14.6948 10.61436 -0 39.51609 -0 -4.315392 -16.19483 -2.237445 -8.406338 10.61238 -24.01537 -0 6.711838 -0 17.56748 -13.4732 32.45629 -2.352376 -2.517859 6.068488 1.628655 10.58041 -6.538667 1.643755 21.55082 6.083784 3.591717 -23.53414 8.563135 6.398792 -19.24737 10.84607 85.31965 37.44907 -17.90416 -0 0 13.55963 -8.343721 8.572516 4.854629 6.705341 -21.65952 -2.255203 -91.88295 22.08372 20.98111 0 0 -16.95283 14.95794 14.15086 -0.8070435
0.4462044 104.0459 1.536616 1.280029 0.2565976 -0.3003488 6.350795 -16.4033 10.48845 -0 39.28033 -0 -5.000292 -14.74661 -1.68034 -8.505368 10.25743 -23.56159 -0 7.061788 -0 19.07127 -13.43397 32.73625 -2.371778 -2.667249 6.327814 1.464494 10.3423 -6.35581 1.598314 21.54245 6.108218 3.643592 -23.16675 8.480573 6.384647 -19.41026 10.68595 84.81865 38.14302 -17.30646 -0 0 13.57685 -8.322482 8.361956 5.119893 6.8871 -21.71407 -2.16961 -91.49742 21.99914 20.84795 0 0 -17.9056 15.42487 13.94012 -0.9544078
0.8296649 104.1281 3.488891 0.8967115 1.222737 -0.2825511 5.863566 -20.92962 8.220075 -0 32.50302 -0 -6.133187 -12.18637 -1.291349 -7.842986 11.02806 -22.00629 -0 6.11776 -0 15.13595 -16.63834 28.66622 -2.314712 -2.746022 6.276396 1.577937 10.4264 -6.52677 1.662303 21.4945 6.080492 3.538696 -23.50662 8.665671 6.399586 -19.43345 10.70494 85.2392 37.83948 -17.98276 -0 0 13.65636 -7.832509 8.450634 4.70837 6.879133 -21.73766 -2.117001 -91.88611 22.49371 21.10369 0 0 -17.86631 15.12756 14.2096 -0.6064665
1.184941 104.002 5.545989 0.5378461 2.001012 -0.1925405 5.959198 -23.35173 8.378266 -0 30.10776 -0 -6.143375 -11.40592 -1.769987 -7.415948 11.06038 -21.53575 -0 5.569349 -0 12.7806 -18.30764 26.97613 -2.267592 -2.883775 6.305333 1.643531 10.43571 -6.641671 1.707205 21.44066 6.081517 3.462657 -23.74728 8.846443 6.40822 -19.52207 10.6697 85.52574 37.73463 -18.50082 -0 0 13.76415 -7.312343 8.453292 4.328637 6.948185 -21.7902 -2.041474 -92.19684 22.89496 21.36075 0 0 -18.04776 15.06809 14.4228 -0.4246156
1.504087 103.6877 7.871076 0.1870077 2.793274 0.002753883 6.120666 -26.28276 7.741495 -0 27.07525 -0 -6.596652 -9.75826 -1.723206 -7.057226 11.31385 -20.60841 -0 5.522061 -0 11.00437 -19.77806 25.03624 -2.221214 -2.905521 6.232596 1.734963 10.47864 -6.769187 1.756271 21.40203 6.046965 3.373441 -24.00914 8.95618 6.397656 -19.51647 10.69943 85.76751 37.42094 -18.89509 -0 0 13.85529 -7.049627 8.538712 4.142795 6.898464 -21.74251 -1.986269 -92.47502 23.35308 21.52776 0 0 -17.99967 14.59662 14.61113 0.07183692
1.791982 103.2442 10.52309 -0.1739978 3.658276 0.3144041 6.424623 -29.10712 7.076817 -0 24.17738 -0 -7.136521 -7.881893 -1.444855 -6.761981 11.5647 -19.66592 -0 5.916519 -0 9.678963 -20.90163 23.26619 -2.183117 -2.89187 6.129447 1.830902 10.51243 -6.888804 1.796189 21.36859 6.016938 3.294806 -24.25826 9.037916 6.381224 -19.48301 10.74421 85.96081 37.07431 -19.20366 -0 0 13.93586 -6.891425 8.632774 4.037701 6.820761 -21.66423 -1.93847 -92.72029 23.77044 21.65752 0 0 -17.87425 14.04915 14.76925 0.6036221
2.04928 102.7153 13.60558 -0.5590929 4.543749 0.7556016 6.747444 -31.78912 6.18467 -0 21.12966 -0 -7.816167 -5.645108 -0.9021221 -6.475565 11.91548 -18.58499 -0 6.930271 -0 8.371096 -21.69127 21.29511 -2.152864 -2.840612 5.995731 1.930942 10.52953 -7.000309 1.825604 21.3402 5.988784 3.225248 -24.48491 9.083319 6.359905 -19.4154 10.80356 86.09441 36.71046 -19.4161 -0 0 13.99166 -6.845821 8.738025 4.034389 6.711813 -21.55336 -1.896083 -92.90932 24.16591 21.72797 0 0 -17.71663 13.39805 14.88883 1.209322
2.279526 102.176 17.21525 -1.012939 5.436566 1.3295 7.129969 -34.0891 5.240102 -0 18.2348 -0 -8.589849 -3.198353 -0.1748668 -6.154379 12.31328 -17.42353 -0 8.807358 -0 6.808461 -22.01442 19.04834 -2.129914 -2.776906 5.854844 2.02853 10.52637 -7.100829 1.844434 21.3146 5.968721 3.166983 -24.68299 9.107732 6.338429 -19.33465 10.86384 86.18324 36.37307 -19.56485 -0 0 14.02566 -6.855324 8.836417 4.08681 6.596851 -21.43336 -1.8573 -93.05113 24.52716 21.76079 0 0 -17.57482 12.73554 14.9756 1.819075
2.490633 101.7261 21.45367 -1.565436 6.264915 2.018741 7.60658 -35.71783 4.371923 -0 15.73953 -0 -9.372516 -0.6945348 0.6248816 -5.753892 12.72103 -16.15519 -0 11.90613 -0 4.734445 -21.65133 16.4095 -2.112618 -2.709648 5.71992 2.117024 10.50549 -7.186966 1.854771 21.29312 5.953375 3.118332 -24.8426 9.113048 6.319192 -19.24927 10.91962 86.23216 36.0846 -19.65916 -0 0 14.03709 -6.898898 8.922896 4.181224 6.483372 -21.31381 -1.823659 -93.14439 24.86154 21.76149 0 0 -17.48289 12.08865 15.03151 2.423164
2.700379 101.4941 26.40534 -2.226358 6.929757 2.769186 8.254511 -36.29078 3.815956 -0 13.94564 -0 -9.98136 1.576521 1.287645 -5.240159 13.02367 -14.76354 -0 16.63684 -0 2.045103 -20.30566 13.40803 -2.099425 -2.646273 5.605827 2.187305 10.47404 -7.253095 1.859428 21.27859 5.937932 3.078328 -24.95098 9.099867 6.304511 -19.16877 10.96604 86.24607 35.86712 -19.70419 -0 0 14.02739 -6.960467 8.993462 4.302576 6.378687 -21.20546 -1.798947 -93.18889 25.16774 21.73747 0 0 -17.46336 11.49388 15.05844 3.000108
2.939668 101.6198 32.09981 -2.949263 7.281843 3.468853 9.111747 -35.38392 3.817322 -0 13.06223 -0 -10.15033 3.201408 1.507423 -4.607873 12.99569 -13.2257 -0 23.36043 -0 -1.090056 -17.70946 10.29025 -2.089002 -2.58716 5.525395 2.228375 10.4413 -7.291305 1.860844 21.27574 5.914745 3.046665 -24.98819 9.06081 6.296052 -19.09758 11.00099 86.22208 35.74204 -19.68972 -0 0 13.99378 -7.044917 9.049305 4.451495 6.284741 -21.11605 -1.789146 -93.17331 25.44123 21.68467 0 0 -17.53587 10.97299 15.0524 3.540405
3.247658 102.2172 38.44613 -3.601272 7.146128 3.944777 10.05349 -32.69513 4.451773 -0 13.05807 -0 -9.694922 3.70272 1.016832 -3.906532 12.23258 -11.57575 -0 32.1211 -0 -4.149861 -13.89138 7.5552 -2.080559 -2.527658 5.49195 2.226909 10.41641 -7.290792 1.85979 21.2898 5.875857 3.025588 -24.92633 8.981298 6.293975 -19.03736 11.02357 86.14704 35.73523 -19.58821 -0 0 13.93103 -7.178416 9.095544 4.64253 6.202137 -21.05305 -1.800526 -93.07277 25.66459 21.58667 0 0 -17.72003 10.54689 15.00125 4.031534
3.650368 103.3141 45.17574 -3.955112 6.372891 4.013555 10.68539 -28.29971 5.366386 -0 13.47856 -0 -8.818941 2.782915 -0.1058028 -3.259613 10.18042 -9.979731 -0 42.28468 -0 -6.432989 -9.493159 5.759595 -2.073901 -2.458346 5.519985 2.168086 10.40344 -7.23785 1.853735 21.32406 5.81559 3.021139 -24.73158 8.839367 6.293777 -18.98918 11.03331 85.98949 35.87567 -19.34571 -0 0 13.83792 -7.415 9.141541 4.909793 6.131794 -21.02195 -1.834995 -92.84723 25.80401 21.41421 0 0 -18.03683 10.23262 14.88101 4.458884
4.130899 104.8039 51.87658 -3.759893 4.923951 3.604264 10.4956 -22.76649 5.807486 -0 13.52671 -0 -8.196156 0.6905409 -1.251047 -2.843398 6.391773 -8.753623 -0 52.37366 -0 -7.491832 -5.722166 5.1966 -2.069238 -2.369008 5.626638 2.038382 10.39316 -7.117028 1.835256 21.37461 5.735678 3.043746 -24.37517 8.611282 6.280257 -18.96152 11.02801 85.68968 36.18514 -18.87259 -0 0 13.7366 -7.835576 9.198086 5.307021 6.079115 -21.02193 -1.880794 -92.45249 25.80776 21.13836 0 0 -18.50128 10.04094 14.65529 4.804579
4.624319 106.4671 58.17458 -2.903443 2.933245 2.864232 9.271875 -16.8256 5.211669 -0 12.6185 -0 -8.352911 -1.73091 -1.697357 -2.781647 0.9820126 -8.144833 -0 60.47542 -0 -7.481866 -3.622228 5.782869 -2.066453 -2.256623 5.83132 1.831853 10.35283 -6.915254 1.791865 21.42393 5.651058 3.105452 -23.8547 8.284289 6.220773 -18.98187 11.0011 85.15371 36.65445 -18.04321 -0 0 13.70109 -8.53068 9.269946 5.898689 6.057706 -21.03723 -1.901492 -91.86876 25.62001 20.76038 0 0 -19.10829 9.963359 14.28237 5.058379
5.053915 108.0565 63.94085 -1.576252 0.661022 2.081856 7.414819 -10.86668 3.91924 -0 10.97905 -0 -8.905166 -3.700984 -1.376014 -2.932767 -5.192803 -7.951259 -0 64.96407 -0 -6.976583 -3.247141 7.272098 -2.064012 -2.134233 6.150464 1.558381 10.22403 -6.629394 1.709388 21.43937 5.590798 3.212477 -23.21468 7.872227 6.066453 -19.10139 10.9413 84.27007 37.21775 -16.7252 -0 0 13.86781 -9.560456 9.345948 6.735274 6.088721 -21.03145 -1.835637 -91.13457 25.21247 20.34211 0 0 -19.82191 9.956659 13.73505 5.23578
5.378818 109.3487 69.30108 -0.2693242 -1.633384 1.446755 5.762538 -4.987014 2.930011 -0 9.419463 -0 -8.896608 -5.231109 -0.9573248 -2.772204 -11.07596 -7.510678 -0 64.79321 -0 -6.390303 -3.791036 9.475716 -2.058582 -2.029847 6.585673 1.247617 9.942806 -6.273797 1.579232 21.38485 5.587348 3.357021 -22.54219 7.41908 5.771157 -19.37513 10.83838 82.96364 37.75405 -14.84896 -0 0 14.38766 -10.91186 9.398669 7.82004 6.190279 -20.95676 -1.621819 -90.34992 24.61426 19.99628 0 0 -20.58054 9.944119 13.02582 5.384288
5.626613 110.1357 74.45465 0.4897956 -3.693444 0.9203906 4.979836 0.5783896 2.711085 -0 8.444849 -0 -8.009065 -7.002274 -0.9729493 -1.762935 -16.11842 -6.344471 -0 59.55852 -0 -5.761577 -4.485763 12.13166 -2.047053 -1.969123 7.110421 0.9422152 9.482359 -5.88061 1.406163 21.24387 5.656762 3.516301 -21.93019 6.982005 5.323484 -19.82093 10.69437 81.26939 38.12905 -12.487 -0 0 15.3272 -12.48782 9.401445 9.088617 6.358642 -20.77847 -1.242895 -89.63413 23.90589 19.82705 0 0 -21.30579 9.847541 12.21668 5.558501
5.883548 110.275 79.54658 0.5096279 -5.165691 0.3581358 5.092534 5.384171 2.782349 -0 7.964232 -0 -6.920962 -9.475183 -1.199674 0.04894239 -20.25518 -4.670374 -0 50.08686 -0 -4.999381 -4.992226 14.63615 -2.030701 -1.952781 7.66531 0.6816262 8.89178 -5.48953 1.211652 21.03743 5.783727 3.660879 -21.43597 6.605976 4.769398 -20.38975 10.53231 79.37029 38.24664 -9.880437 -0 0 16.5971 -14.13691 9.348526 10.41922 6.553352 -20.49375 -0.7562584 -89.07773 23.18155 19.87507 0 0 -21.89169 9.623107 11.39939 5.788994
6.231738 109.788 84.68808 0.03952227 -5.733822 -0.2944205 5.595585 9.075765 2.631068 -0 7.854114 -0 -6.297692 -12.33102 -1.198273 2.04379 -23.44867 -3.046029 -0 38.6619 -0 -4.077872 -5.138725 16.29372 -2.016751 -1.949212 8.172801 0.4852237 8.292786 -5.132532 1.028605 20.81898 5.924988 3.766619 -21.06506 6.308017 4.201573 -20.98015 10.39228 77.54786 38.07355 -7.366668 -0 0 17.9843 -15.70654 9.259994 11.67421 6.704124 -20.12746 -0.2768789 -88.72578 22.51773 20.11594 0 0 -22.19855 9.262707 10.65497 6.085784
6.708179 108.8531 90.00304 -0.5038021 -5.407764 -0.9762682 5.902736 11.675 2.322763 -0 8.283242 -0 -6.039372 -14.86736 -0.9085487 3.547781 -25.57646 -1.876337 -0 27.88548 -0 -3.133904 -4.882861 16.89347 -2.01349 -1.912798 8.569978 0.3472814 7.822317 -4.824917 0.887614 20.64533 6.032377 3.822716 -20.78679 6.079556 3.714101 -21.4915 10.31283 76.05938 37.63159 -5.238624 -0 0 19.27078 -17.09538 9.170805 12.75073 6.744438 -19.71435 0.08311317 -88.58491 21.96316 20.49709 0 0 -22.10095 8.771452 10.02171 6.461832
